<svg width="642" height="602" viewBox="0 0 642 602" fill="none" xmlns="http://www.w3.org/2000/svg">
<g id="Platforms">
<g id="Coinweb">
<g id="Fill 1" filter="url(#filter0_d)">
<path fill-rule="evenodd" clip-rule="evenodd" d="M286.371 70.418L200.49 120.002C187.388 127.568 179.252 141.661 179.252 156.791V255.961C179.252 271.086 187.388 285.184 200.49 292.748L286.371 342.332C292.82 346.055 300.163 348.022 307.61 348.022C315.054 348.022 322.397 346.055 328.848 342.332L414.734 292.748C427.834 285.184 435.97 271.086 435.97 255.961V156.791C435.97 141.664 427.834 127.568 414.734 120.002L328.848 70.418C322.397 66.6945 315.054 64.7275 307.61 64.7275C300.163 64.7275 292.82 66.6945 286.371 70.418Z" fill="url(#paint0_linear)"/>
<path d="M286.371 70.418L200.49 120.002C187.388 127.568 179.252 141.661 179.252 156.791V156.791V255.961C179.252 271.086 187.388 285.184 200.49 292.748V292.748L286.371 342.332C292.82 346.055 300.163 348.022 307.61 348.022V348.022C315.054 348.022 322.397 346.055 328.848 342.332V342.332L414.734 292.748C427.834 285.184 435.97 271.086 435.97 255.961V255.961V156.791C435.97 141.664 427.834 127.568 414.734 120.002V120.002L328.848 70.418C322.397 66.6945 315.054 64.7275 307.61 64.7275V64.7275C300.163 64.7275 292.82 66.6945 286.371 70.418" stroke="white" stroke-linejoin="round"/>
</g>
<path id="Fill 30" opacity="0.15307" fill-rule="evenodd" clip-rule="evenodd" d="M202.206 158.822V255.64C202.206 263.343 206.314 270.458 212.983 274.308L296.831 322.719C303.503 326.569 311.718 326.569 318.387 322.719L402.235 274.308C408.906 270.458 413.012 263.343 413.012 255.64V158.822C413.012 151.121 408.906 144.004 402.235 140.154L318.387 91.7456C311.718 87.8954 303.503 87.8954 296.831 91.7456L212.983 140.154C206.314 144.004 202.206 151.121 202.206 158.822Z" fill="white"/>
<path id="Bottom" opacity="0.077461" fill-rule="evenodd" clip-rule="evenodd" d="M411.512 263.545L307.61 207.073L203.707 263.545C205.467 268.008 208.696 271.833 212.984 274.308L296.832 322.719C303.503 326.569 311.718 326.569 318.387 322.719L402.235 274.308C406.524 271.833 409.753 268.008 411.512 263.545Z" fill="white"/>
</g>
<g id="Blockchains">
<path id="Polkadot" opacity="0.079044" fill-rule="evenodd" clip-rule="evenodd" d="M307.622 210.1V335.365C307.622 343.066 311.728 350.183 318.4 354.034L416.105 410.444C422.774 414.294 430.992 414.294 437.66 410.444L535.368 354.034C542.035 350.183 546.146 343.066 546.146 335.365V222.545C546.146 214.845 542.035 207.728 535.368 203.877L437.66 147.467C430.992 143.617 422.774 143.617 416.105 147.467L307.622 210.1Z" fill="white"/>
<path id="Ethereum" opacity="0.082524" fill-rule="evenodd" clip-rule="evenodd" d="M69.0767 222.546V335.373C69.0767 343.074 73.1854 350.189 79.8543 354.039L177.565 410.451C184.234 414.302 192.451 414.302 199.12 410.451L296.831 354.039C303.497 350.189 307.606 343.074 307.606 335.373V210.1L199.12 147.465C192.451 143.615 184.234 143.615 177.565 147.465L79.8543 203.88C73.1854 207.73 69.0767 214.845 69.0767 222.546Z" fill="white"/>
<path id="The Graph" opacity="0.081233" fill-rule="evenodd" clip-rule="evenodd" d="M178.616 414.052C178.616 421.753 182.722 428.87 189.394 432.72L296.833 494.75C303.504 498.6 311.719 498.6 318.388 494.75L425.827 432.72C432.495 428.87 436.604 421.753 436.604 414.052V289.993C436.604 282.29 432.495 275.175 425.827 271.325L307.61 207.073L189.394 271.325C182.722 275.175 178.616 282.29 178.616 289.993V414.052Z" fill="white"/>
<path id="Elrond" opacity="0.08" fill-rule="evenodd" clip-rule="evenodd" d="M307.609 190.796V77.9684C307.609 70.2679 303.503 63.153 296.832 59.3028L199.121 2.88767C192.45 -0.962557 184.235 -0.962557 177.566 2.88767L79.8552 59.3028C73.1864 63.153 69.0776 70.2679 69.0776 77.9684V190.796C69.0776 198.496 73.1864 205.614 79.8552 209.464L188.343 272.099L307.622 206.375" fill="white"/>
<path id="Chainlink" opacity="0.081491" fill-rule="evenodd" clip-rule="evenodd" d="M546.15 77.9684C546.15 70.2679 542.041 63.153 535.372 59.3028L437.659 2.88767C430.99 -0.962557 422.773 -0.962557 416.104 2.88767L318.393 59.3028C311.724 63.153 307.616 70.2679 307.616 77.9684L307.622 206.375L426.882 272.099L535.372 209.464C542.041 205.614 546.15 198.496 546.15 190.796V77.9684Z" fill="white"/>
<path id="Arrows" opacity="0.299474" fill-rule="evenodd" clip-rule="evenodd" d="M474.189 114.311C475.556 117.56 474.375 121.39 471.257 123.228C467.853 125.23 463.473 124.095 461.47 120.693C459.47 117.291 460.603 112.909 464.008 110.909C467.128 109.071 471.052 109.9 473.226 112.673L568.291 56.732C566.924 53.4825 568.106 49.6526 571.226 47.8149C574.627 45.8125 579.01 46.948 581.012 50.3496C583.012 53.7512 581.879 58.1337 578.478 60.1336C575.355 61.9713 571.431 61.1424 569.256 58.372L474.189 114.311ZM140.744 297.83C137.627 299.665 136.443 303.497 137.812 306.747L42.7447 362.685C40.57 359.915 36.6462 359.086 33.5235 360.921C30.1219 362.923 28.9863 367.306 30.9887 370.705C32.9912 374.109 37.3737 375.245 40.7753 373.242C43.8955 371.405 45.0767 367.575 43.7079 364.325L138.775 308.387C140.952 311.157 144.873 311.986 147.994 310.148C151.398 308.148 152.531 303.766 150.528 300.364C148.528 296.963 144.148 295.827 140.744 297.83ZM578.477 360.921C575.357 359.086 571.433 359.915 569.256 362.685L474.189 306.744C475.558 303.497 474.377 299.665 471.256 297.83C467.852 295.827 463.472 296.963 461.47 300.365C459.47 303.766 460.603 308.149 464.007 310.148C467.127 311.986 471.048 311.157 473.228 308.384L568.293 364.325C566.924 367.575 568.105 371.405 571.228 373.243C574.627 375.242 579.009 374.109 581.012 370.705C583.012 367.306 581.879 362.924 578.477 360.921ZM147.994 110.908C144.874 109.071 140.95 109.902 138.773 112.672L43.7062 56.7313C45.0749 53.4843 43.8963 49.6518 40.7735 47.8142C37.3719 45.8143 32.9919 46.9498 30.9895 50.3489C28.9871 53.753 30.1226 58.133 33.5242 60.1354C36.6444 61.9705 40.5682 61.1442 42.7455 58.3712L137.81 114.312C136.441 117.562 137.625 121.392 140.745 123.227C144.147 125.229 148.529 124.094 150.529 120.692C152.531 117.291 151.398 112.911 147.994 110.908ZM307.61 387.539C311.557 387.539 314.758 390.74 314.758 394.687C314.758 398.309 312.054 401.27 308.561 401.739V536.922C312.054 537.391 314.758 540.352 314.758 543.974C314.758 547.92 311.557 551.122 307.61 551.122C303.664 551.122 300.462 547.92 300.462 543.974C300.462 540.352 303.167 537.391 306.66 536.922V401.739C303.167 401.27 300.462 398.309 300.462 394.687C300.462 390.74 303.664 387.539 307.61 387.539Z" fill="#D3D3EF"/>
</g>
<path id="5." d="M610.748 48.724C608.696 48.724 607.292 47.536 606.644 46.78C606.212 46.276 605.852 46.204 605.492 46.204C604.484 46.204 603.548 47.32 603.548 48.04C603.548 48.472 603.872 48.94 604.088 49.192C604.88 50.056 606.896 52.144 610.964 52.144C615.32 52.144 618.38 49.408 618.38 43.684C618.38 38.824 616.652 35.188 611.576 35.188C610.172 35.188 608.984 35.584 607.94 36.376C607.94 36.376 607.868 36.448 607.724 36.448C607.544 36.448 607.472 36.34 607.472 36.196V30.688C607.472 30.436 607.544 30.364 607.796 30.364H615.32C616.508 30.364 616.94 29.572 616.94 28.672C616.94 27.772 616.508 26.944 615.32 26.944H605.42C604.52 26.944 603.872 27.556 603.872 28.564V39.256C603.872 40.516 604.808 41.02 605.996 41.02C607.688 41.02 608.408 38.608 610.748 38.608C614.168 38.608 614.672 40.912 614.672 43.684C614.672 47.464 612.98 48.724 610.748 48.724Z" fill="#00C3FF"/>
<path id="4" d="M603.44 386.728C603.188 387.34 602.936 388.06 602.936 388.528C602.936 389.392 603.476 390.04 604.628 390.04H612.26C612.512 390.04 612.584 390.148 612.584 390.364V392.524C612.584 393.712 613.484 394.144 614.384 394.144C615.284 394.144 616.184 393.712 616.184 392.524V390.364C616.184 390.148 616.256 390.04 616.508 390.04H617.588C618.668 390.04 619.064 389.212 619.064 388.348C619.064 387.52 618.668 386.656 617.588 386.656H616.508C616.256 386.656 616.184 386.548 616.184 386.296V383.056C616.184 381.868 615.284 381.436 614.384 381.436C613.484 381.436 612.584 381.868 612.584 383.056V386.296C612.584 386.548 612.512 386.656 612.26 386.656H607.688C607.544 386.656 607.364 386.584 607.364 386.404C607.364 386.296 607.4 386.224 607.4 386.224L613.34 371.248C613.448 370.96 613.52 370.708 613.52 370.492C613.52 369.484 612.404 368.8 611.54 368.8C610.964 368.8 610.424 369.088 610.1 369.916L603.44 386.728Z" fill="#00C3FF"/>
<path id="3" d="M307.246 579.456C306.094 579.456 305.662 580.176 305.662 581.076C305.662 581.976 306.094 582.66 307.246 582.66H307.606C310.018 582.66 311.674 584.28 311.674 586.692C311.674 589.104 310.018 590.724 307.606 590.724C305.554 590.724 304.15 589.536 303.502 588.78C303.142 588.348 302.71 588.204 302.35 588.204C301.342 588.204 300.406 589.32 300.406 590.04C300.406 590.472 300.73 590.94 300.946 591.192C301.738 592.056 303.538 594.144 307.606 594.144C312.25 594.144 315.382 591.156 315.382 586.692C315.382 584.316 314.158 582.552 312.502 581.4C312.394 581.328 312.358 581.22 312.358 581.112C312.358 581.004 312.394 580.896 312.502 580.824C313.942 579.744 314.914 578.052 314.914 575.856C314.914 571.5 311.998 568.8 307.606 568.8C304.906 568.8 302.926 569.88 301.594 571.248C301.126 571.752 300.73 572.22 300.73 572.76C300.73 573.804 301.738 574.524 302.602 574.524C303.178 574.524 303.466 574.308 303.718 574.056C305.014 572.904 305.806 572.22 307.606 572.22C309.802 572.22 311.206 573.624 311.206 575.856C311.206 578.088 309.802 579.456 307.606 579.456H307.246Z" fill="#00C3FF"/>
<path id="2" d="M14.076 394C15.264 394 15.696 393.208 15.696 392.308C15.696 391.408 15.264 390.58 14.076 390.58H6.084C5.976 390.58 5.76 390.58 5.76 390.4C5.76 390.292 5.832 390.076 5.832 390.076C6.264 388.888 7.632 387.412 8.64 386.44L12.564 382.66C15.156 380.14 15.732 377.908 15.732 375.964C15.732 371.896 13.104 368.8 8.388 368.8C5.688 368.8 3.708 369.88 2.376 371.248C1.908 371.752 1.512 372.22 1.512 372.76C1.512 373.804 2.52 374.524 3.384 374.524C3.96 374.524 4.248 374.308 4.5 374.056C5.796 372.904 6.588 372.22 8.388 372.22C10.8 372.22 11.988 373.732 11.988 376.036C11.988 377.26 11.52 378.592 9.9 380.14L5.724 384.208C2.772 387.088 1.044 390.256 1.044 392.308C1.044 393.208 1.26 394 3.06 394H14.076Z" fill="#00C3FF"/>
<path id="1." d="M2.34 32.92C1.908 33.316 1.764 33.748 1.764 34.144C1.764 35.116 2.7 35.944 3.6 35.944C3.96 35.944 4.356 35.8 4.788 35.44L7.164 33.28C7.2 33.244 7.272 33.172 7.38 33.172C7.56 33.172 7.56 33.496 7.56 33.496V50.524C7.56 51.712 8.46 52.144 9.36 52.144C10.26 52.144 11.16 51.712 11.16 50.524V28.636C11.16 27.268 10.26 26.8 9.504 26.8C9 26.8 8.46 26.98 7.812 27.592L2.34 32.92Z" fill="#00C3FF"/>
<path id="Coinweb platform" d="M264.421 199.568C264.741 199.184 265.029 198.832 265.029 198.224C265.029 197.328 263.877 196.144 262.853 196.144C262.309 196.144 261.957 196.4 261.541 196.784C260.293 197.84 258.981 198.096 257.893 198.096C256.645 198.096 255.461 197.84 254.757 196.496C254.117 195.28 254.117 193.392 254.117 190.864C254.117 188.368 254.149 186.512 254.725 185.264C255.365 183.92 256.741 183.632 257.893 183.632C259.301 183.632 260.037 183.856 261.349 184.848C261.637 185.072 261.957 185.168 262.405 185.168C263.397 185.168 264.453 184.048 264.453 183.088C264.453 182.224 263.941 181.808 263.365 181.328C261.925 180.144 259.941 179.6 257.733 179.6C255.365 179.6 253.413 179.984 251.685 182C250.309 183.632 249.797 187.056 249.797 190.864C249.797 194.64 250.213 197.968 251.685 199.728C253.413 201.776 255.589 202.128 257.733 202.128C261.669 202.128 263.653 200.464 264.421 199.568ZM272.052 193.84C272.052 191.056 272.212 189.36 274.772 189.36C277.332 189.36 277.492 191.056 277.492 193.84C277.492 196.624 277.332 198.32 274.772 198.32C272.212 198.32 272.052 196.624 272.052 193.84ZM267.956 193.84C267.956 198.576 269.204 202.128 274.772 202.128C280.34 202.128 281.588 198.576 281.588 193.84C281.588 189.104 280.34 185.552 274.772 185.552C269.204 185.552 267.956 189.104 267.956 193.84ZM289.512 181.904C289.512 180.56 288.52 179.6 287.208 179.6C285.832 179.6 284.904 180.56 284.904 181.904C284.904 183.216 285.832 184.208 287.208 184.208C288.52 184.208 289.512 183.216 289.512 181.904ZM285.192 200.304C285.192 201.648 286.216 202.128 287.208 202.128C288.2 202.128 289.192 201.648 289.192 200.304V187.376C289.192 186 288.2 185.552 287.208 185.552C286.216 185.552 285.192 186 285.192 187.376V200.304ZM302.783 200.304C302.783 201.648 303.807 202.128 304.799 202.128C305.791 202.128 306.783 201.648 306.783 200.304V191.472C306.783 188.24 305.151 185.552 301.535 185.552C300.095 185.552 299.295 185.808 298.431 186.352C298.079 186.576 297.887 186.768 297.727 186.768C297.599 186.768 297.471 186.768 297.343 186.48C297.087 185.936 296.543 185.552 295.551 185.552C294.559 185.552 293.535 186.032 293.535 187.376V200.304C293.535 201.648 294.559 202.128 295.551 202.128C296.543 202.128 297.535 201.648 297.535 200.304V192.304C297.535 189.328 299.839 189.232 300.159 189.232C302.783 189.232 302.783 191.344 302.783 192.88V200.304ZM320.637 192.208C320.861 192.208 320.829 192.496 320.925 192.752L323.357 199.984C323.901 201.584 324.573 202.128 325.789 202.128C327.005 202.128 327.709 201.616 328.221 199.984L331.933 188.176C332.029 187.888 332.061 187.632 332.061 187.408C332.061 186.192 330.781 185.552 329.789 185.552C329.085 185.552 328.317 185.904 328.029 186.992L325.949 194.448C325.853 194.768 325.821 195.184 325.597 195.184C325.437 195.184 325.373 194.704 325.277 194.448L323.069 187.696C322.525 186.064 321.853 185.552 320.637 185.552C319.421 185.552 318.749 186.064 318.205 187.696L315.997 194.448C315.901 194.704 315.837 195.184 315.677 195.184C315.453 195.184 315.421 194.768 315.325 194.448L313.245 186.992C312.957 185.904 312.189 185.552 311.485 185.552C310.397 185.552 309.213 186.288 309.213 187.408C309.213 187.632 309.245 187.888 309.341 188.176L313.053 199.984C313.565 201.616 314.269 202.128 315.485 202.128C316.701 202.128 317.373 201.584 317.917 199.984L320.349 192.752C320.445 192.496 320.413 192.208 320.637 192.208ZM337.834 195.664C337.834 195.472 337.962 195.344 338.154 195.344H345.13C346.89 195.344 347.05 194.128 347.05 192.944C347.05 188.4 345.29 185.552 340.458 185.552C335.018 185.552 333.674 189.008 333.674 193.84C333.674 198.928 335.146 202.128 340.618 202.128C342.794 202.128 344.554 201.584 346.25 200.272C346.666 199.952 346.89 199.472 346.89 199.056C346.89 198.096 346.026 196.976 344.938 196.976C344.362 196.976 344.042 197.2 343.562 197.52C342.794 198.032 341.642 198.32 340.746 198.32C338.538 198.32 337.93 197.328 337.834 195.664ZM343.114 191.952C343.114 192.112 343.05 192.208 342.89 192.208H338.09C337.962 192.208 337.866 192.144 337.866 191.92C337.898 190.32 338.794 189.104 340.458 189.104C342.282 189.104 343.114 190.352 343.114 191.952ZM357.284 198.32C354.724 198.32 354.692 195.664 354.692 193.84C354.692 191.792 354.724 189.36 357.284 189.36C359.588 189.36 360.004 191.056 360.004 193.84C360.004 196.624 359.652 198.32 357.284 198.32ZM358.212 202.128C362.596 202.128 364.1 198.576 364.1 193.84C364.1 189.104 362.596 185.552 358.212 185.552C357.412 185.552 356.484 185.744 355.78 186.192C355.428 186.416 355.236 186.672 355.076 186.672C354.948 186.672 354.692 186.64 354.692 186.256V181.424C354.692 180.048 353.7 179.6 352.708 179.6C351.716 179.6 350.692 180.048 350.692 181.424V200.304C350.692 201.648 351.716 202.128 352.708 202.128C353.7 202.128 354.244 201.744 354.5 201.2C354.628 200.912 354.756 200.912 354.884 200.912C355.044 200.912 355.236 201.168 355.588 201.392C356.324 201.84 357.156 202.128 358.212 202.128ZM257.102 225.552C256.046 225.552 255.214 225.84 254.478 226.288C254.126 226.512 253.934 226.768 253.774 226.768C253.646 226.768 253.518 226.768 253.39 226.48C253.134 225.936 252.59 225.552 251.598 225.552C250.606 225.552 249.582 226.032 249.582 227.376V246.512C249.582 247.888 250.606 248.336 251.598 248.336C252.59 248.336 253.582 247.888 253.582 246.512V241.424C253.582 241.04 253.838 241.008 253.966 241.008C254.126 241.008 254.318 241.264 254.67 241.488C255.374 241.936 256.302 242.128 257.102 242.128C261.486 242.128 262.99 238.576 262.99 233.84C262.99 229.104 261.486 225.552 257.102 225.552ZM256.174 238.32C253.614 238.32 253.582 235.664 253.582 233.84C253.582 231.792 253.614 229.36 256.174 229.36C258.478 229.36 258.894 231.056 258.894 233.84C258.894 236.624 258.542 238.32 256.174 238.32ZM270.582 242.128C272.982 242.128 273.302 241.04 273.302 240.08C273.302 239.024 272.79 238.32 271.67 238.32C270.934 238.32 270.614 237.936 270.614 237.392V221.424C270.614 220.08 269.622 219.6 268.63 219.6C267.638 219.6 266.614 220.08 266.614 221.424V237.424C266.614 240.048 267.286 242.128 270.582 242.128ZM285.038 240.72C285.518 241.488 286.286 242.128 287.566 242.128C289.518 242.128 290.126 241.424 290.126 240.144C290.126 239.024 289.518 238.352 288.718 238.352C288.302 238.352 288.174 238.16 288.174 237.68V232.72C288.174 228.368 287.054 225.552 281.742 225.552C280.014 225.552 278.222 225.968 276.622 227.12C276.078 227.504 275.758 227.984 275.758 228.592C275.758 229.52 276.75 230.544 277.71 230.544C278.03 230.544 278.35 230.448 278.67 230.224C279.406 229.712 280.142 229.296 281.678 229.296C283.47 229.296 284.27 230 284.27 231.504V231.792C284.27 232.048 284.11 232.144 283.95 232.144H281.806C278.702 232.144 275.118 233.168 275.118 237.264C275.118 239.536 276.366 242.128 280.334 242.128C281.774 242.128 283.15 241.808 284.206 240.784C284.43 240.56 284.526 240.464 284.686 240.464C284.814 240.464 284.91 240.528 285.038 240.72ZM283.918 235.408C284.11 235.408 284.27 235.504 284.27 235.76V236.208C284.27 237.488 283.278 238.544 281.39 238.544C279.886 238.544 279.246 238 279.246 236.88C279.246 235.632 280.622 235.408 282.094 235.408H283.918ZM293.139 225.456C293.139 225.712 293.043 225.776 292.851 225.776H292.179C290.835 225.776 290.355 226.576 290.355 227.568C290.355 228.592 290.835 229.36 292.179 229.36H292.851C293.043 229.36 293.139 229.488 293.139 229.712V236.912C293.139 240.048 294.227 242.128 297.651 242.128C299.699 242.128 300.243 241.232 300.243 240.144C300.243 239.056 299.667 238.32 298.387 238.32C297.459 238.32 297.139 237.776 297.139 236.912V229.648C297.139 229.488 297.171 229.36 297.427 229.36H298.451C299.795 229.36 300.243 228.592 300.243 227.568C300.243 226.576 299.795 225.776 298.451 225.776H297.427C297.171 225.776 297.139 225.712 297.139 225.488V222.896C297.139 221.552 296.115 221.072 295.123 221.072C294.131 221.072 293.139 221.552 293.139 222.896V225.456ZM303.655 240.304C303.655 241.648 304.647 242.128 305.639 242.128C306.631 242.128 307.655 241.648 307.655 240.304V229.648C307.655 229.424 307.751 229.36 307.943 229.36H309.447C310.631 229.36 311.047 228.496 311.047 227.568C311.047 226.704 310.631 225.776 309.447 225.776H307.943C307.751 225.776 307.655 225.712 307.655 225.488V224.208C307.655 223.696 307.879 223.312 308.295 223.312H309.447C310.631 223.312 311.015 222.448 311.015 221.52C311.015 220.656 310.631 219.728 309.447 219.728H308.071C305.287 219.728 303.655 221.04 303.655 223.728V225.488C303.655 225.68 303.495 225.776 303.367 225.776H303.111C301.895 225.776 301.511 226.704 301.511 227.568C301.511 228.496 301.895 229.36 303.111 229.36H303.367C303.527 229.36 303.655 229.456 303.655 229.648V240.304ZM317.005 233.84C317.005 231.056 317.165 229.36 319.725 229.36C322.285 229.36 322.445 231.056 322.445 233.84C322.445 236.624 322.285 238.32 319.725 238.32C317.165 238.32 317.005 236.624 317.005 233.84ZM312.909 233.84C312.909 238.576 314.157 242.128 319.725 242.128C325.293 242.128 326.541 238.576 326.541 233.84C326.541 229.104 325.293 225.552 319.725 225.552C314.157 225.552 312.909 229.104 312.909 233.84ZM330.145 240.304C330.145 241.648 331.169 242.128 332.161 242.128C333.153 242.128 334.145 241.648 334.145 240.304V232.336C334.145 229.616 335.777 229.552 336.545 229.552C337.025 229.552 337.121 229.584 338.049 229.584C338.785 229.584 339.585 229.136 339.585 227.696C339.585 226.096 338.785 225.552 337.121 225.552C336.289 225.552 335.553 225.904 335.137 226.224C334.689 226.544 334.401 226.864 334.241 226.864C334.177 226.864 334.145 226.832 334.113 226.768C333.729 225.904 333.057 225.552 332.161 225.552C331.169 225.552 330.145 226.032 330.145 227.376V240.304ZM360.578 240.304C360.578 241.648 361.602 242.128 362.594 242.128C363.586 242.128 364.578 241.648 364.578 240.304V231.632C364.578 227.504 361.762 225.552 358.338 225.552C357.122 225.552 355.842 225.84 354.722 226.48C354.338 226.704 354.114 226.864 353.762 226.864C353.634 226.864 353.442 226.864 353.218 226.704C352.322 226 351.17 225.552 349.73 225.552C348.354 225.552 347.842 225.808 346.978 226.352C346.626 226.576 346.434 226.768 346.274 226.768C346.146 226.768 346.018 226.768 345.89 226.48C345.634 225.936 345.09 225.552 344.098 225.552C343.106 225.552 342.082 226.032 342.082 227.376V240.304C342.082 241.648 343.106 242.128 344.098 242.128C345.09 242.128 346.082 241.648 346.082 240.304V232.304C346.082 229.328 348.386 229.232 348.706 229.232C351.33 229.232 351.33 231.344 351.33 232.88V240.304C351.33 241.648 352.354 242.128 353.346 242.128C354.338 242.128 355.33 241.648 355.33 240.304V232.304C355.33 229.328 357.634 229.232 357.954 229.232C360.578 229.232 360.578 231.344 360.578 232.88V240.304Z" fill="white"/>
</g>
<defs>
<filter id="filter0_d" x="148.252" y="43.7275" width="318.718" height="345.295" filterUnits="userSpaceOnUse" color-interpolation-filters="sRGB">
<feFlood flood-opacity="0" result="BackgroundImageFix"/>
<feColorMatrix in="SourceAlpha" type="matrix" values="0 0 0 0 0 0 0 0 0 0 0 0 0 0 0 0 0 0 127 0"/>
<feOffset dy="5"/>
<feGaussianBlur stdDeviation="7.5"/>
<feColorMatrix type="matrix" values="0 0 0 0 0.105473 0 0 0 0 0.0984633 0 0 0 0 0.245666 0 0 0 1 0"/>
<feBlend mode="normal" in2="BackgroundImageFix" result="effect1_dropShadow"/>
<feBlend mode="normal" in="SourceGraphic" in2="effect1_dropShadow" result="shape"/>
</filter>
<linearGradient id="paint0_linear" x1="180.903" y1="711.599" x2="598.463" y2="349.803" gradientUnits="userSpaceOnUse">
<stop stop-color="#FF0063"/>
<stop offset="1" stop-color="#5100FF"/>
</linearGradient>
</defs>
</svg>
